# xmcd CD database file
#
# Track frame offsets:
#	150
#	14800
#	43607
#	54370
#	70195
#	89460
#	97402
#	112235
#	126140
#	152602
#	171150
#	181765
#	198742
#	212627
#
# Disc length: 3150 seconds
#
# Revision: 0
# Processed by: cddbd v1.5.1PL2 Copyright (c) Steve Scherf et al.
# Submitted via: CDex 1.50Beta7
#
DISCID=cd0c4c0e
DTITLE=Various Artist - The Blue Hearts Tribute 2005 Edition
DYEAR=2005
DGENRE=Punk Rock
TTITLE0=キスして欲しい (トゥー・トゥー・トゥー) ／ Potshot
TTITLE1=ラインを超えて ／ Pealout
TTITLE2=情熱の薔薇 ／ 小島
TTITLE3=シャララ ／ In-Hi
TTITLE4=Train-Train ／ UxZxMxK (Uzumaki)
TTITLE5=ダンス・ナンバー ／ Newrote'ka
TTITLE6=未来は僕等の手の中 ／ Husking Bee
TTITLE7=人にやさしく ／ Kenzi
TTITLE8=Too Much Pain ／ SA
TTITLE9=風船爆弾 (バンバンバン) ／ 氣志団
TTITLE10=世界のまん中 ／ 怒髪天
TTITLE11=リンダリンダ ／ 音速ライン
TTITLE12=少年の詩 ／ Penpals
TTITLE13=青空 ／ Cylinder Head Rock
EXTD=YEAR: 2005
EXTT0=
EXTT1=
EXTT2=
EXTT3=
EXTT4=
EXTT5=
EXTT6=
EXTT7=
EXTT8=
EXTT9=
EXTT10=
EXTT11=
EXTT12=
EXTT13=
PLAYORDER=
